<svg id="Capa_1" data-name="Capa 1" xmlns="http://www.w3.org/2000/svg" viewBox="0 0 384.97 384.97"><defs><style>.cls-1{fill:#fff;}</style></defs><g id="Fullscreen"><path class="cls-1" d="M385,12a12,12,0,0,0-12-12H264.85a11.88,11.88,0,0,0-11.94,12.22,11.57,11.57,0,0,0,11.94,11.84h96.06l-.19,96.52a12,12,0,1,0,24.06,0L385,12.21s0-.06,0-.08S385,12.07,385,12Z"/><path class="cls-1" d="M120.5,0H12.22a12,12,0,0,0-12,12L0,120.4a11.88,11.88,0,0,0,12.22,11.93A11.57,11.57,0,0,0,24.06,120.4l.19-96.34h96.24a11.79,11.79,0,0,0,12-12A11.8,11.8,0,0,0,120.5,0Z"/><path class="cls-1" d="M120.12,360.91H24.06V264.67a11.79,11.79,0,0,0-12-12,11.79,11.79,0,0,0-12,12V372.76s0,.06,0,.08,0,.06,0,.1a12,12,0,0,0,12,12H120.12a11.89,11.89,0,0,0,11.94-12.22A11.57,11.57,0,0,0,120.12,360.91Z"/><path class="cls-1" d="M372.75,252.91a11.55,11.55,0,0,0-11.84,11.94v96.06H264.67a12,12,0,0,0,0,24.06H372.84s.06,0,.1,0a12,12,0,0,0,12-12V264.85A11.88,11.88,0,0,0,372.75,252.91Z"/></g></svg>